<svg xmlns="http://www.w3.org/2000/svg" width="1577.68" height="573.345" viewBox="0 0 1577.68 573.345">
  <g id="パス_4" data-name="パス 4" transform="translate(33.092 298.595)" fill="#fff">
    <path d="M 194.8121795654297 274.2257690429688 L -32.02805328369141 0.4999620616436005 L 566.4676513671875 0.4999620616436005 L 566.4912109375 0.4999620616436005 L 566.5148315429688 0.4977620542049408 L 734.5040283203125 -15.44412517547607 L 976.5474243164062 -32.29603958129883 L 976.5652465820312 -32.29723739624023 L 976.5830078125 -32.29983901977539 L 1135.548828125 -54.91683959960938 L 1135.611083984375 -54.92563629150391 L 1135.669067382812 -54.94963836669922 L 1225.003662109375 -91.79323577880859 L 1225.0322265625 -91.80503845214844 L 1225.05908203125 -91.82023620605469 L 1354.6904296875 -165.1116333007812 L 1354.820190429688 -165.1850433349609 L 1354.888671875 -165.3174438476562 L 1423.427001953125 -298.0952453613281 L 1485.519653320312 -298.0952453613281 L 1544.088256835938 -298.0952453613281 L 1544.088256835938 -156.2460327148438 L 1473.606201171875 -33.16968154907227 L 1224.624877929688 98.04283905029297 L 841.0657958984375 208.93359375 L 194.8121795654297 274.2257690429688 Z" stroke="none"/>
    <path d="M 195.0269775390625 273.7013854980469 L 840.9717407226562 208.4403991699219 L 1224.437377929688 97.57666015625 L 1473.244140625 -33.54385375976562 L 1543.588256835938 -156.37939453125 L 1543.588256835938 -297.5952453613281 L 1423.731567382812 -297.5952453613281 L 1355.1962890625 -164.8230438232422 L 1354.936645507812 -164.6762390136719 L 1225.25146484375 -91.35443878173828 L 1225.194213867188 -91.33103942871094 L 1135.74365234375 -54.43943786621094 L 1135.619262695312 -54.42183685302734 L 976.58203125 -31.79723739624023 L 734.54638671875 -14.94586372375488 L 566.5150146484375 0.9999620318412781 L -30.9643383026123 0.9999620318412781 L 195.0269775390625 273.7013854980469 M 194.5972290039062 274.7499694824219 L -33.09177017211914 -3.793945143115707e-05 L 566.4676513671875 -3.793945143115707e-05 L 734.4622192382812 -15.94243812561035 L 976.5126342773438 -32.79483795166016 L 1135.478393554688 -55.41183853149414 L 1224.81298828125 -92.25543975830078 L 1354.444458007812 -165.5468444824219 L 1423.122436523438 -298.5952453613281 L 1544.588256835938 -298.5952453613281 L 1544.588256835938 -156.1132354736328 L 1473.967651367188 -32.79483795166016 L 1224.81298828125 98.50896453857422 L 841.1618041992188 209.4263610839844 L 194.5972290039062 274.7499694824219 Z" stroke="none" fill="#707070"/>
  </g>
</svg>
