<svg xmlns="http://www.w3.org/2000/svg" width="416.001" height="247" viewBox="0 0 416.001 247">
  <g id="グループ_16" data-name="グループ 16" transform="translate(-502 -49)">
    <g id="合体_2" data-name="合体 2" transform="translate(463 -21)" fill="#fff">
      <path d="M 266.7396240234375 313.4999084472656 C 257.3800048828125 313.4999084472656 248.0809478759766 312.6351318359375 239.1008453369141 310.9295654296875 C 230.3949432373047 309.276123046875 221.9635009765625 306.8289489746094 214.0407867431641 303.6560668945312 C 206.2752838134766 300.5461730957031 199.0037841796875 296.7421264648438 192.4281768798828 292.349609375 C 185.90234375 287.9903259277344 180.07861328125 283.0627746582031 175.1186676025391 277.7038269042969 L 173.8973999023438 276.3843383789062 L 172.1135101318359 276.6085510253906 C 165.9801177978516 277.3795166015625 159.6900634765625 277.7703857421875 153.4181213378906 277.7703857421875 C 145.8313903808594 277.7703857421875 138.2510070800781 277.1998901367188 130.8875579833984 276.0747375488281 C 123.7187271118164 274.9792785644531 116.6693954467773 273.345458984375 109.9355087280273 271.2185668945312 C 103.3347244262695 269.1337890625 96.97139739990234 266.5549011230469 91.02222442626953 263.5536193847656 C 85.14461517333984 260.5884399414062 79.62150573730469 257.1861267089844 74.60628509521484 253.4411163330078 C 69.60967254638672 249.7099456787109 65.07761383056641 245.6091156005859 61.13606262207031 241.2524566650391 C 57.17578506469727 236.8751220703125 53.77783966064453 232.2017822265625 51.03672790527344 227.3623962402344 C 48.25867080688477 222.4579010009766 46.12667083740234 217.3310546875 44.6998405456543 212.1243896484375 C 43.23994827270508 206.7969512939453 42.49972915649414 201.3148345947266 42.49972915649414 195.8303375244141 C 42.49972915649414 185.3412780761719 45.15494918823242 175.1239471435547 50.39167404174805 165.4621734619141 C 52.92761611938477 160.7832794189453 56.0760612487793 156.2469482421875 59.74956130981445 151.9791717529297 C 63.40272903442383 147.7348937988281 67.61222839355469 143.7128448486328 72.26106262207031 140.0246124267578 C 76.92039489746094 136.3281097412109 82.06545257568359 132.9317321777344 87.55333709716797 129.9298400878906 C 93.09661865234375 126.8976745605469 99.04450225830078 124.2381134033203 105.2318420410156 122.0251159667969 C 118.0795593261719 117.4299468994141 131.8379516601562 114.7517852783203 146.1248321533203 114.0650024414062 L 147.6674499511719 113.9908981323242 L 148.6524505615234 112.8013916015625 C 158.3718414306641 101.0645599365234 172.0299987792969 91.23506164550781 188.1504516601562 84.37550354003906 C 196.3703460693359 80.87778472900391 205.1653442382812 78.17667388916016 214.2910003662109 76.34717559814453 C 223.7140655517578 74.45806121826172 233.4890594482422 73.50022888183594 243.3445587158203 73.50022888183594 C 252.1181793212891 73.50022888183594 260.8522338867188 74.26128387451172 269.3041076660156 75.76216888427734 C 277.5084533691406 77.2191162109375 285.4974060058594 79.38128662109375 293.0490112304688 82.18861389160156 C 300.4492797851562 84.93967437744141 307.4527282714844 88.31806182861328 313.8646850585938 92.23006439208984 C 320.2166137695312 96.10539245605469 325.9964904785156 100.5091705322266 331.0437927246094 105.3190078735352 L 332.1256713867188 106.3500595092773 L 333.6186218261719 106.2816162109375 C 335.9234008789062 106.1759490966797 338.2662353515625 106.1223907470703 340.5820007324219 106.1223907470703 C 348.1687316894531 106.1223907470703 355.7491149902344 106.6928939819336 363.112548828125 107.8180618286133 C 370.2814636230469 108.9135055541992 377.3307189941406 110.5473403930664 384.0646057128906 112.6742248535156 C 390.6654052734375 114.7590637207031 397.0287170410156 117.337890625 402.9779052734375 120.3391723632812 C 408.8555603027344 123.3043365478516 414.378662109375 126.7067260742188 419.3938293457031 130.4517822265625 C 424.3905029296875 134.1829528808594 428.9225463867188 138.2838439941406 432.8641052246094 142.6405029296875 C 436.8244018554688 147.0178985595703 440.2222900390625 151.6912231445312 442.9634399414062 156.5306701660156 C 445.741455078125 161.4352264404297 447.8735046386719 166.5621185302734 449.3003540039062 171.7688446044922 C 450.7602233886719 177.0963439941406 451.5004577636719 182.5785064697266 451.5004577636719 188.0631103515625 C 451.5004577636719 197.3377227783203 449.4118347167969 206.4398956298828 445.2926025390625 215.1167297363281 C 441.28173828125 223.5654449462891 435.4356689453125 231.4428405761719 427.9167175292969 238.5299987792969 C 420.4132690429688 245.6026153564453 411.4624633789062 251.6857299804688 401.3129577636719 256.6103515625 C 390.9452819824219 261.6407775878906 379.615234375 265.3187866210938 367.637451171875 267.5421752929688 L 366.2267150878906 267.8040466308594 L 365.4057922363281 268.9807739257812 C 356.2389526367188 282.1199645996094 342.4191589355469 293.2161865234375 325.4403991699219 301.0698852539062 C 316.8255004882812 305.0548400878906 307.5292358398438 308.1381225585938 297.8099060058594 310.2340698242188 C 287.7607727050781 312.401123046875 277.3072204589844 313.4999084472656 266.7396240234375 313.4999084472656 Z" stroke="none"/>
      <path d="M 266.7396545410156 309.9999389648438 C 307.3146362304688 309.9999389648438 344.0214233398438 293.5149536132812 362.5353698730469 266.9781799316406 L 364.1773071289062 264.6246948242188 L 366.9987182617188 264.1010131835938 C 414.6912841796875 255.2480010986328 448.0004272460938 223.9801177978516 448.0004272460938 188.0631256103516 C 448.0004272460938 144.8107147216797 399.8127136230469 109.6223526000977 340.5820007324219 109.6223526000977 C 338.2983703613281 109.6223526000977 336.0279541015625 109.6748275756836 333.779052734375 109.777946472168 L 330.7931213378906 109.9148864746094 L 328.6292419433594 107.8528289794922 C 308.0540466308594 88.24552917480469 276.9689331054688 77.00017547607422 243.3445281982422 77.00017547607422 C 205.4609375 77.00017547607422 171.0697631835938 91.21829986572266 151.3481750488281 115.0337066650391 L 149.3781127929688 117.4127044677734 L 146.2928771972656 117.5610046386719 C 90.0537109375 120.2644119262695 45.99970626831055 154.6444091796875 45.99970626831055 195.8303527832031 C 45.99970626831055 239.0823516845703 94.18741607666016 274.2704162597656 153.4181213378906 274.2704162597656 C 159.5445861816406 274.2704162597656 165.6877593994141 273.8887023925781 171.677001953125 273.1358947753906 L 175.2447662353516 272.6874084472656 L 177.6873016357422 275.326416015625 C 197.7821807861328 297.0378723144531 231.0727691650391 309.9999389648438 266.7396545410156 309.9999389648438 M 266.7396545410156 316.9999389648438 C 227.6808319091797 316.9999389648438 193.19482421875 302.3868713378906 172.5500030517578 280.0812377929688 C 166.3295288085938 280.8631286621094 159.9362335205078 281.2704162597656 153.4181213378906 281.2704162597656 C 90.22676849365234 281.2704162597656 38.99970626831055 243.0173034667969 38.99970626831055 195.8303527832031 C 38.99970626831055 150.5147094726562 86.24341583251953 113.4394760131836 145.9567718505859 110.5690612792969 C 166.1177062988281 86.22317504882812 202.1953582763672 70.00017547607422 243.3445281982422 70.00017547607422 C 279.9349365234375 70.00017547607422 312.5136413574219 82.82588195800781 333.4583435058594 102.7852935791016 C 335.813232421875 102.6772994995117 338.1907043457031 102.6223526000977 340.5820007324219 102.6223526000977 C 403.7734069824219 102.6223526000977 455.0004272460938 140.8754119873047 455.0004272460938 188.0631256103516 C 455.0004272460938 228.1190643310547 418.0870666503906 261.7372436523438 368.2762451171875 270.9834289550781 C 349.1974792480469 298.329833984375 310.8900146484375 316.9999389648438 266.7396545410156 316.9999389648438 Z" stroke="none" fill="#707070"/>
    </g>
    <text id="Brush_Up" data-name="Brush Up" transform="translate(569 195)" fill="#707070" font-size="68" font-family="YuGo-Medium, YuGothic" font-weight="500"><tspan x="0" y="0">Brush Up</tspan></text>
  </g>
</svg>
