<svg xmlns="http://www.w3.org/2000/svg" width="1930.837" height="549.537" viewBox="0 0 1930.837 549.537">
  <g id="グループ_14" data-name="グループ 14" transform="translate(0.609 -418.887)">
    <g id="グループ_1" data-name="グループ 1" transform="translate(-64 238.375)">
      <g id="楕円形_1" data-name="楕円形 1" transform="translate(215 564)" fill="#fff" stroke="#707070" stroke-width="8">
        <ellipse cx="24.5" cy="24" rx="24.5" ry="24" stroke="none"/>
        <ellipse cx="24.5" cy="24" rx="20.5" ry="20" fill="none"/>
      </g>
      <line id="線_3" data-name="線 3" y2="53" transform="translate(239.5 612.5)" fill="none" stroke="#707070" stroke-width="8"/>
      <line id="線_4" data-name="線 4" y2="53" transform="translate(239.5 612.5)" fill="none" stroke="#707070" stroke-width="8"/>
      <line id="線_5" data-name="線 5" x1="16" y1="23" transform="translate(239.5 616.5)" fill="none" stroke="#707070" stroke-width="8"/>
      <line id="線_6" data-name="線 6" x1="14" y2="20.75" transform="translate(225.5 659.75)" fill="none" stroke="#707070" stroke-width="8"/>
      <line id="線_7" data-name="線 7" x2="16" y2="8.75" transform="translate(239.5 661.75)" fill="none" stroke="#707070" stroke-width="8"/>
      <line id="線_8" data-name="線 8" x1="19" y2="20" transform="translate(220.5 616.5)" fill="none" stroke="#707070" stroke-width="8"/>
      <line id="線_9" data-name="線 9" x1="12" y2="10.375" transform="translate(239.5 670.125)" fill="none" stroke="#707070" stroke-width="8"/>
    </g>
    <g id="グループ_2" data-name="グループ 2" transform="translate(265.5 169.875)">
      <g id="楕円形_1-2" data-name="楕円形 1" transform="translate(401 553)" fill="#fff" stroke="#707070" stroke-width="8">
        <ellipse cx="24.5" cy="24" rx="24.5" ry="24" stroke="none"/>
        <ellipse cx="24.5" cy="24" rx="20.5" ry="20" fill="none"/>
      </g>
      <line id="線_4-2" data-name="線 4" x1="48" y2="27" transform="translate(362.5 592.5)" fill="none" stroke="#707070" stroke-width="8"/>
      <line id="線_5-2" data-name="線 5" x2="8" y2="18" transform="translate(399.5 601.5)" fill="none" stroke="#707070" stroke-width="8"/>
      <line id="線_7-2" data-name="線 7" y2="16" transform="translate(367.5 616.5)" fill="none" stroke="#707070" stroke-width="8"/>
      <line id="線_9-2" data-name="線 9" x1="31" y1="0.5" transform="translate(340.5 628.5)" fill="none" stroke="#707070" stroke-width="8"/>
    </g>
    <g id="グループ_4" data-name="グループ 4" transform="translate(-296.5 174.875)">
      <g id="楕円形_1-3" data-name="楕円形 1" transform="translate(671 564)" fill="#fff" stroke="#707070" stroke-width="8">
        <ellipse cx="24.5" cy="24" rx="24.5" ry="24" stroke="none"/>
        <ellipse cx="24.5" cy="24" rx="20.5" ry="20" fill="none"/>
      </g>
      <line id="線_3-2" data-name="線 3" y2="53" transform="translate(695.5 612.5)" fill="none" stroke="#707070" stroke-width="8"/>
      <line id="線_4-3" data-name="線 4" x2="7" y2="20" transform="translate(720.5 612.5)" fill="none" stroke="#707070" stroke-width="8"/>
      <line id="線_5-3" data-name="線 5" x1="33" y2="11" transform="translate(695.5 628.5)" fill="none" stroke="#707070" stroke-width="8"/>
      <line id="線_6-2" data-name="線 6" x1="39" y2="21" transform="translate(656.5 659.75)" fill="none" stroke="#707070" stroke-width="8"/>
      <line id="線_7-3" data-name="線 7" y1="0.25" x2="25" transform="translate(695.5 661.5)" fill="none" stroke="#707070" stroke-width="8"/>
      <line id="線_8-2" data-name="線 8" x1="32" y2="8" transform="translate(663.5 639.5)" fill="none" stroke="#707070" stroke-width="8"/>
      <line id="線_9-3" data-name="線 9" x1="16" y2="17.75" transform="translate(701.5 662.75)" fill="none" stroke="#707070" stroke-width="8"/>
    </g>
    <g id="グループ_5" data-name="グループ 5" transform="translate(32.5 58.125)">
      <g id="楕円形_1-4" data-name="楕円形 1" transform="translate(823 564)" fill="#fff" stroke="#707070" stroke-width="8">
        <ellipse cx="24.5" cy="24" rx="24.5" ry="24" stroke="none"/>
        <ellipse cx="24.5" cy="24" rx="20.5" ry="20" fill="none"/>
      </g>
      <line id="線_3-3" data-name="線 3" y2="53" transform="translate(847.5 612.5)" fill="none" stroke="#707070" stroke-width="8"/>
      <line id="線_4-4" data-name="線 4" y2="53" transform="translate(847.5 612.5)" fill="none" stroke="#707070" stroke-width="8"/>
      <line id="線_5-4" data-name="線 5" x1="38" y2="27" transform="translate(847.5 612.5)" fill="none" stroke="#707070" stroke-width="8"/>
      <line id="線_6-3" data-name="線 6" x1="39" y2="21" transform="translate(808.5 659.75)" fill="none" stroke="#707070" stroke-width="8"/>
      <line id="線_7-4" data-name="線 7" y1="0.25" x2="19" transform="translate(847.5 661.5)" fill="none" stroke="#707070" stroke-width="8"/>
      <line id="線_8-3" data-name="線 8" x1="32" y2="8" transform="translate(815.5 639.5)" fill="none" stroke="#707070" stroke-width="8"/>
      <line id="線_9-4" data-name="線 9" x1="16" y2="17.75" transform="translate(847.5 662.75)" fill="none" stroke="#707070" stroke-width="8"/>
    </g>
    <g id="グループ_3" data-name="グループ 3" transform="translate(1050 -91.25)">
      <g id="楕円形_1-5" data-name="楕円形 1" transform="translate(519 564)" fill="#fff" stroke="#707070" stroke-width="8">
        <ellipse cx="24.5" cy="24" rx="24.5" ry="24" stroke="none"/>
        <ellipse cx="24.5" cy="24" rx="20.5" ry="20" fill="none"/>
      </g>
      <line id="線_3-4" data-name="線 3" y2="53" transform="translate(543.5 612.5)" fill="none" stroke="#707070" stroke-width="8"/>
      <line id="線_4-5" data-name="線 4" y2="53" transform="translate(543.5 612.5)" fill="none" stroke="#707070" stroke-width="8"/>
      <line id="線_5-5" data-name="線 5" x1="54" y2="48" transform="translate(543.5 564.5)" fill="none" stroke="#707070" stroke-width="8"/>
      <line id="線_6-4" data-name="線 6" x1="44" y2="24.875" transform="translate(499.5 655.625)" fill="none" stroke="#707070" stroke-width="8"/>
      <line id="線_7-5" data-name="線 7" x2="27" y2="27.75" transform="translate(543.5 656.25)" fill="none" stroke="#707070" stroke-width="8"/>
      <line id="線_8-4" data-name="線 8" x1="59" y1="42" transform="translate(487.5 577.5)" fill="none" stroke="#707070" stroke-width="8"/>
      <line id="線_9-5" data-name="線 9" x1="15" y2="8.375" transform="translate(565.5 675.5)" fill="none" stroke="#707070" stroke-width="8"/>
      <line id="線_10" data-name="線 10" x1="19.5" y1="13.188" transform="translate(487.5 666.5)" fill="none" stroke="#707070" stroke-width="8"/>
    </g>
    <g id="グループ_6" data-name="グループ 6" transform="translate(139 0.75)">
      <g id="楕円形_1-6" data-name="楕円形 1" transform="translate(953 561.5)" fill="#fff" stroke="#707070" stroke-width="8">
        <ellipse cx="24.5" cy="24" rx="24.5" ry="24" stroke="none"/>
        <ellipse cx="24.5" cy="24" rx="20.5" ry="20" fill="none"/>
      </g>
      <line id="線_6-5" data-name="線 6" x1="39" y2="21" transform="translate(938.5 660.25)" fill="none" stroke="#707070" stroke-width="8"/>
      <line id="線_7-6" data-name="線 7" y1="0.25" x2="19" transform="translate(974.5 661)" fill="none" stroke="#707070" stroke-width="8"/>
      <line id="線_8-5" data-name="線 8" x1="48" y2="19.5" transform="translate(945.5 628.5)" fill="none" stroke="#707070" stroke-width="8"/>
      <line id="線_9-6" data-name="線 9" x1="16" y2="17.75" transform="translate(974.5 662.25)" fill="none" stroke="#707070" stroke-width="8"/>
      <path id="パス_1" data-name="パス 1" d="M895.025,694.854c12.056,45.678-25.192,57.741-33.589,76.988" transform="translate(1835.905 1374.541) rotate(180)" fill="none" stroke="#707070" stroke-width="8"/>
    </g>
    <g id="グループ_7" data-name="グループ 7" transform="translate(1082 135.125)">
      <g id="楕円形_1-7" data-name="楕円形 1" transform="translate(261.5 390.375)" fill="#fff" stroke="#707070" stroke-width="8">
        <ellipse cx="24.5" cy="24" rx="24.5" ry="24" stroke="none"/>
        <ellipse cx="24.5" cy="24" rx="20.5" ry="20" fill="none"/>
      </g>
      <line id="線_3-5" data-name="線 3" x1="16" y2="20.375" transform="translate(292.5 440.5)" fill="none" stroke="#707070" stroke-width="8"/>
      <line id="線_4-6" data-name="線 4" x1="35.5" y2="41.125" transform="translate(247.5 432.375)" fill="none" stroke="#707070" stroke-width="8"/>
      <line id="線_5-6" data-name="線 5" x1="26.5" y1="10.344" transform="translate(269 448.156)" fill="none" stroke="#707070" stroke-width="8"/>
      <line id="線_6-6" data-name="線 6" x1="37" y2="41.625" transform="translate(218.5 463.578)" fill="none" stroke="#707070" stroke-width="8"/>
      <line id="線_7-7" data-name="線 7" y1="0.25" x2="30" transform="translate(247.5 473.5)" fill="none" stroke="#707070" stroke-width="8"/>
      <line id="線_8-6" data-name="線 8" x1="32" y2="8" transform="translate(234.5 448.938)" fill="none" stroke="#707070" stroke-width="8"/>
      <line id="線_9-7" data-name="線 9" x1="22" y2="26.219" transform="translate(255.5 471.281)" fill="none" stroke="#707070" stroke-width="8"/>
    </g>
    <g id="グループ_12" data-name="グループ 12">
      <line id="線_2" data-name="線 2" x2="438" transform="translate(1482 594.5)" fill="none" stroke="#707070" stroke-width="5"/>
      <line id="線_1" data-name="線 1" y1="372" x2="1482" transform="translate(0 594)" fill="none" stroke="#707070" stroke-width="5"/>
    </g>
    <g id="グループ_11" data-name="グループ 11">
      <path id="パス_2" data-name="パス 2" d="M191.06,266.215c105.37-124.43,63.8,70.176,159.228,0s57.823,22.546,116.1,0,94.664-82.523,136.637,0" transform="translate(1324.978 451.919)" fill="none" stroke="#707070" stroke-width="5"/>
      <path id="パス_3" data-name="パス 3" d="M191.06,259.885c129.4-105.955,78.35,59.756,195.543,0s71.01,19.2,142.575,0,116.253-70.271,167.8,0" transform="translate(1715.019 971.31) rotate(180)" fill="none" stroke="#707070" stroke-width="5"/>
    </g>
    <g id="グループ_10" data-name="グループ 10">
      <line id="線_11" data-name="線 11" y2="134" transform="translate(1728.5 458.5)" fill="none" stroke="#707070" stroke-width="5"/>
      <g id="多角形_1" data-name="多角形 1" transform="translate(1784.855 418.887) rotate(90)" fill="#fff">
        <path d="M 54.86215209960938 57.85498046875 L 4.000492572784424 57.85498046875 L 29.43132209777832 5.703829765319824 L 54.86215209960938 57.85498046875 Z" stroke="none"/>
        <path d="M 29.43132209777832 11.40766525268555 L 8.000984191894531 55.35497665405273 L 50.86166000366211 55.35497665405273 L 29.43132209777832 11.40766525268555 M 29.43132209777832 3.814697265625e-06 L 58.86264801025391 60.35497665405273 L -3.814697265625e-06 60.35497665405273 L 29.43132209777832 3.814697265625e-06 Z" stroke="none" fill="#707070"/>
      </g>
    </g>
  </g>
</svg>
